<svg version="1.1" xmlns="http://www.w3.org/2000/svg" viewBox="0 0 250 250">
    <desc>Created with Snap</desc>
    <defs></defs>
    <g transform="matrix(0.0445,0,0,0.0445,13.0114,187.3666)">
        <g transform="matrix(28.026,0,0,28.026,1118.0477,-3345.3052)">
            <g>
                <g>
                    <path
                        d="M76.185,28.808l-2.188-5.476h-6.224l-0.002-4.444c-2.453,0-4.444,1.99-4.444,4.444l-10.023,8.256l13.105,13.105    l8.027-8.029h2.223c3.667,0,6.667-1.389,6.667-4.445v-2.222L76.185,28.808z"
                        fill="#e8715b" style=""></path>
                    <path
                        d="M65.552,76.66H65.55h-2.221V60.488c1.32-0.77,2.219-2.186,2.221-3.826v-7.168L50.2,34.143L25.554,54.441l0.016,0.021    c-4.513,3.399-7.688,8.47-8.598,14.303c-0.184,0.755-0.305,1.532-0.305,2.343c0,5.523,4.476,9.997,9.997,9.997h1.114V71.103    c0-6.749,5.471-12.222,12.222-12.222c1.174,0,2.288,0.218,3.362,0.527c-0.005-0.178-0.032-0.345-0.032-0.525    c0-6.137,2.985-11.11,6.667-11.11v2.222h2.221c1.229,0,2.223,0.993,2.223,2.223h2.223v2.221H56.66    c0,1.227-0.992,2.221-2.221,2.223v0.002c-1.227,0-2.223,0.994-2.223,2.223c0,1.227,0.996,2.221,2.223,2.221v6.668    c0,1.642-0.9,3.059-2.223,3.828v7.282h2.223c1.229,0,2.221,0.993,2.223,2.221l0,0h4.441h0.005h2.221h2.221h2.223v-2.224    C67.772,77.654,66.778,76.66,65.552,76.66z"
                        fill="#e8715b" style=""></path>
                </g>
            </g>
            <desc>Created with Snap</desc>
            <defs></defs>
        </g>
        <g>
            <g transform="matrix(0.5,0,0,-0.5,0,0)">
                <path
                    d="M409 848L409 641Q409 323 416 249Q424 176 431 144Q438 112 452 87Q474 46 536 0L29 0Q108 49 132 85Q178 153 178 261Q177 527 177 743L177 1268Q177 1417 130 1484Q112 1508 87 1530L839 1530Q907 1506 932 1362Q939 1322 939 1284Q939 1206 916 1160L862 1268Q808 1374 707 1410Q651 1430 581 1430Q511 1430 481 1425Q451 1421 435 1404Q409 1375 409 1293Q409 1212 413 1180Q417 1149 432 1129Q463 1090 563 1090L877 1090Q854 1032 830 1008Q782 960 700 960Q668 960 639 967Q585 980 544 980Q503 980 476 972Q450 965 435 949Q409 921 409 848ZM1811 534L1808 342Q1808 163 1841 98Q1861 59 1888 38L1935 0L1645 0L1614 116Q1501 -20 1292 -20Q1173 -20 1100 60Q1036 132 1036 230Q1036 328 1082 401Q1129 474 1205 522Q1355 615 1582 619L1582 630Q1582 873 1507 915Q1480 930 1437 930Q1395 930 1353 902Q1311 874 1277 830Q1209 741 1180 620Q1091 673 1091 823Q1091 884 1107 960Q1145 960 1179 971L1256 995Q1369 1030 1477 1030Q1585 1030 1649 998Q1714 966 1750 903Q1811 796 1811 534ZM1252 210Q1252 148 1280 114Q1309 80 1352 80Q1395 80 1435 102Q1475 125 1507 164Q1582 253 1582 373L1582 521Q1442 508 1351 428Q1252 342 1252 210ZM2403 0L2108 0Q2154 158 2154 543Q2154 817 2110 917Q2092 958 2046 1010L2401 1010Q2383 947 2372 837Q2466 955 2634 1004Q2706 1025 2739 1070Q2772 991 2772 934Q2772 877 2766 828Q2760 780 2748 734Q2722 635 2679 580Q2642 775 2564 808Q2474 847 2388 702Q2370 672 2358 638Q2357 615 2357 591Q2357 567 2357 543Q2357 158 2403 0ZM3880 848L3880 641Q3880 323 3887 249Q3895 176 3902 144Q3909 112 3923 87Q3945 46 4007 0L3500 0Q3579 49 3603 85Q3649 153 3649 261Q3648 527 3648 743L3648 1268Q3648 1417 3601 1484Q3583 1508 3558 1530L4310 1530Q4378 1506 4403 1362Q4410 1322 4410 1284Q4410 1206 4387 1160L4333 1268Q4279 1374 4178 1410Q4122 1430 4052 1430Q3982 1430 3952 1425Q3922 1421 3906 1404Q3880 1375 3880 1293Q3880 1212 3884 1180Q3888 1149 3903 1129Q3934 1090 4034 1090L4348 1090Q4325 1032 4301 1008Q4253 960 4171 960Q4139 960 4110 967Q4056 980 4015 980Q3974 980 3947 972Q3921 965 3906 949Q3880 921 3880 848ZM5238 340Q5274 316 5274 256Q5274 197 5258 152Q5242 107 5202 68Q5112 -20 4928 -20Q4714 -20 4602 138Q4503 279 4503 519Q4503 761 4637 899Q4764 1030 4981 1030Q5132 1030 5217 942Q5284 872 5284 780Q5284 689 5248 615Q5213 542 5144 489Q5002 379 4747 373Q4768 172 4873 104Q4911 80 4974 80Q5037 80 5108 146Q5179 212 5238 340ZM4741 499L4741 468Q5057 489 5057 774Q5057 881 4993 918Q4971 930 4935 930Q4899 930 4862 908Q4826 886 4799 836Q4741 727 4741 499ZM5788 1410Q5767 1333 5767 1225Q5767 1118 5771 1088Q5776 1058 5786 1040Q5805 1010 5860 1010L6128 1010Q6128 954 6101 924Q6052 870 5981 870Q5946 870 5919 880Q5870 900 5843 900Q5816 900 5799 889Q5782 879 5772 859Q5754 823 5754 702Q5754 581 5761 454Q5769 327 5799 241Q5829 156 5890 113Q5951 70 6058 70Q6058 39 6016 -4Q6005 -16 5997 -20Q5820 -20 5732 22Q5631 72 5588 200Q5545 330 5545 585Q5545 808 5533 848Q5521 889 5511 902Q5499 917 5453 939Q5515 986 5576 1114L5626 1219Q5679 1339 5716 1374Q5754 1410 5788 1410ZM6884 1070Q6909 1010 6909 938Q6909 867 6904 820Q6899 773 6889 729Q6868 636 6824 580Q6780 852 6681 910Q6646 930 6605 930Q6565 930 6535 911Q6505 892 6484 856Q6441 784 6441 669Q6441 555 6464 472Q6487 390 6524 324Q6562 259 6609 211Q6657 164 6705 132Q6802 70 6877 70Q6873 44 6851 19Q6829 -6 6803 -20Q6697 -20 6560 52Q6305 187 6216 446Q6183 541 6183 640Q6183 740 6206 808Q6229 877 6273 926Q6363 1030 6523 1030Q6577 1030 6628 1023Q6724 1010 6762 1010Q6801 1010 6831 1020Q6861 1031 6884 1070ZM7988 0L7693 0Q7739 158 7739 543Q7739 704 7722 757Q7705 811 7679 835Q7654 860 7611 860Q7569 860 7534 844Q7500 828 7473 802Q7422 754 7390 674L7390 483Q7390 202 7401 135Q7414 47 7428 0L7133 0Q7157 84 7165 223Q7183 571 7183 735Q7183 900 7182 960Q7181 1021 7179 1081Q7174 1299 7159 1354Q7145 1410 7132 1435Q7120 1461 7105 1482L7071 1529L7436 1529Q7408 1428 7403 1341Q7399 1254 7397 1199Q7395 1145 7393 1085Q7390 945 7390 838Q7469 971 7599 1014Q7645 1030 7702 1030Q7759 1030 7805 1005Q7852 981 7883 936Q7947 845 7947 687L7947 580Q7947 274 7955 196Q7964 119 7967 94Q7974 50 7988 0ZM8942 340Q8978 316 8978 256Q8978 197 8962 152Q8946 107 8906 68Q8816 -20 8632 -20Q8418 -20 8306 138Q8207 279 8207 519Q8207 761 8341 899Q8468 1030 8685 1030Q8836 1030 8921 942Q8988 872 8988 780Q8988 689 8952 615Q8917 542 8848 489Q8706 379 8451 373Q8472 172 8577 104Q8615 80 8678 80Q8741 80 8812 146Q8883 212 8942 340ZM8445 499L8445 468Q8761 489 8761 774Q8761 881 8697 918Q8675 930 8639 930Q8603 930 8566 908Q8530 886 8503 836Q8445 727 8445 499ZM9789 0L9775 79Q9666 -20 9498 -20Q9344 -20 9255 69Q9163 161 9163 328Q9163 496 9212 621Q9261 747 9341 832Q9499 1000 9729 1009Q9721 1317 9708 1362Q9696 1408 9683 1434Q9671 1461 9655 1483L9621 1530L9986 1530Q9958 1429 9953 1334Q9949 1239 9947 1167Q9945 1095 9944 1016Q9941 884 9941 753Q9941 623 9941 556Q9942 489 9944 429Q9949 204 9961 161Q9973 119 9985 93Q9998 68 10014 46L10048 0L9789 0ZM9730 367Q9735 521 9735 655Q9735 790 9732 912Q9587 890 9500 741Q9413 593 9413 368Q9413 235 9433 182Q9454 129 9482 104Q9511 80 9551 80Q9592 80 9622 96Q9653 113 9676 145Q9726 213 9730 367Z"
                    fill="#e8715b" style=""></path>
            </g>
        </g>
    </g>
</svg>